#N canvas 30 61 1603 902 10;
#X obj 576 749 dac~;
#X obj 374 314 pulse;
#X obj 3 270 chirp;
#X obj 743 387 noisey;
#X obj 29 146 mrpeach/udpreceive;
#X msg 34 122 port 1066;
#X obj 28 165 osc/unpackOSC;
#X msg 781 313 sin;
#X msg 791 358 squ;
#X msg 811 314 saw;
#X msg 827 360 tri;
#X obj 11 207 route /chirp/random /chirp/newFreq /chirp/negativeClip
/chirp/positiveClip /chirp/modLength /chirp/pulseLength /chirp/trigger
/chirp/volume;
#X obj 366 247 route /pulse/waveshape /pulse/delay /pulse/volume /pulse/osc1Freq
/pulse/hiPass /pulse/loPass /pulse/osc2Freq1 /pulse/osc2Freq2 /pulse/offset
/pulse/scale;
#X obj 747 195 route /noisey/randFreq /noisey/randWave /noisey/sine
/noisey/square /noisey/sawtooth /noisey/triangle /noisey/freqChangeRate
/noisey/freqChangeScale /noisey/freqChangeOffset /noisey/waveChangeRate
/noisey/filterScale /noisey/filterOffset /noisey/filterQ /noisey/totalScale
/noisey/volume;
#X obj 783 291 t b;
#X obj 794 336 t b;
#X obj 817 290 t b;
#X obj 827 336 t b;
#X obj 26 81 loadbang;
#X obj 1303 31 pduino/arduino 1;
#X obj 1303 53 route analog digital;
#X obj 1301 76 route 0 1 2 12;
#X obj 1110 41 hsl 128 15 0 1 0 0 empty empty empty -2 -8 0 10 -262144
-1 -1 1676 1;
#X obj 1227 143 hsl 64 15 0 1 0 0 empty empty empty -2 -8 0 10 -262144
-1 -1 0 1;
#X obj 1206 76 vsl 15 64 0 1 0 0 empty empty empty 0 -9 0 10 -262144
-1 -1 3159 1;
#X obj 1362 110 route 0 1;
#X obj 1212 499 ml.svm;
#X msg 1215 474 help;
#X obj 1365 256 pack f f f;
#X obj 1417 288 t b;
#X obj 1426 361 list prepend;
#X obj 1402 182 t b;
#X obj 1429 385 list trim;
#X obj 1431 448 spigot 0;
#X obj 1473 414 tgl 15 0 empty empty empty 17 7 0 10 -262144 -1 -1
0 1;
#X msg 1108 333 probs 1;
#X msg 1422 317 add 16;
#X msg 1163 376 write /tmp/foo;
#X msg 1218 437 train;
#X obj 1265 266 pack f f f;
#X obj 1317 288 t b;
#X msg 1323 319 map;
#X obj 1306 361 list prepend;
#X obj 1309 385 list trim;
#X obj 1314 439 spigot 0;
#X obj 1353 414 tgl 15 0 empty empty empty 17 7 0 10 -262144 -1 -1
1 1;
#X msg 1210 411 read /tmp/foo;
#N canvas 655 183 621 582 chripPresetHolder 1;
#X obj 84 420 outlet;
#X obj 134 420 outlet;
#X obj 184 420 outlet;
#X obj 234 420 outlet;
#X obj 284 420 outlet;
#X obj 334 420 outlet;
#X obj 384 420 outlet;
#X obj 214 11 inlet;
#X obj 86 53 route 1 2 3 4 5 6 7 8 9 10 11 12 13 14 15 16;
#N canvas 507 81 450 300 one 0;
#X obj 197 34 inlet;
#X obj 201 240 outlet;
#X obj 157 201 pack f f f f f f f;
#X obj 109 121 delay 1;
#X obj 196 64 t b;
#X msg 102 164 0;
#X msg 136 163 0;
#X msg 309 160 0.33;
#X msg 239 160 53;
#X msg 273 160 43;
#X msg 170 163 -0.22;
#X msg 204 162 1;
#X connect 0 0 4 0;
#X connect 2 0 1 0;
#X connect 3 0 5 0;
#X connect 4 0 3 0;
#X connect 4 0 6 0;
#X connect 4 0 10 0;
#X connect 4 0 11 0;
#X connect 4 0 8 0;
#X connect 4 0 9 0;
#X connect 4 0 7 0;
#X connect 5 0 2 0;
#X connect 6 0 2 1;
#X connect 7 0 2 6;
#X connect 8 0 2 4;
#X connect 9 0 2 5;
#X connect 10 0 2 2;
#X connect 11 0 2 3;
#X restore 39 98 pd one;
#X obj 167 209 unpack f f f f f f f;
#N canvas 507 81 450 300 two 0;
#X obj 197 34 inlet;
#X obj 201 240 outlet;
#X obj 157 201 pack f f f f f f f;
#X obj 109 121 delay 1;
#X obj 196 64 t b;
#X msg 136 163 0;
#X msg 204 162 1;
#X msg 309 160 0.1;
#X msg 273 160 50;
#X msg 239 160 21;
#X msg 171 163 -1;
#X msg 102 164 1;
#X connect 0 0 4 0;
#X connect 2 0 1 0;
#X connect 3 0 11 0;
#X connect 4 0 3 0;
#X connect 4 0 5 0;
#X connect 4 0 10 0;
#X connect 4 0 6 0;
#X connect 4 0 9 0;
#X connect 4 0 8 0;
#X connect 4 0 7 0;
#X connect 5 0 2 1;
#X connect 6 0 2 3;
#X connect 7 0 2 6;
#X connect 8 0 2 5;
#X connect 9 0 2 4;
#X connect 10 0 2 2;
#X connect 11 0 2 0;
#X restore 89 98 pd two;
#N canvas 821 197 450 300 three 0;
#X obj 197 34 inlet;
#X obj 201 240 outlet;
#X obj 157 201 pack f f f f f f f;
#X obj 109 121 delay 1;
#X obj 196 64 t b;
#X msg 136 163 0;
#X msg 102 164 1;
#X msg 170 163 -0.25;
#X msg 204 162 0.25;
#X msg 239 160 5;
#X msg 274 160 37;
#X msg 309 160 0.95;
#X connect 0 0 4 0;
#X connect 2 0 1 0;
#X connect 3 0 6 0;
#X connect 4 0 3 0;
#X connect 4 0 5 0;
#X connect 4 0 7 0;
#X connect 4 0 8 0;
#X connect 4 0 9 0;
#X connect 4 0 10 0;
#X connect 4 0 11 0;
#X connect 5 0 2 1;
#X connect 6 0 2 0;
#X connect 7 0 2 2;
#X connect 8 0 2 3;
#X connect 9 0 2 4;
#X connect 10 0 2 5;
#X connect 11 0 2 6;
#X restore 139 98 pd three;
#N canvas 507 81 450 300 four 0;
#X obj 197 34 inlet;
#X obj 201 240 outlet;
#X obj 157 201 pack f f f f f f f;
#X obj 109 121 delay 1;
#X obj 196 64 t b;
#X msg 102 164 0;
#X msg 136 163 0;
#X msg 170 163 -0.84;
#X msg 204 162 0.43;
#X msg 239 160 18;
#X msg 273 160 21;
#X msg 309 160 0;
#X connect 0 0 4 0;
#X connect 2 0 1 0;
#X connect 3 0 5 0;
#X connect 4 0 3 0;
#X connect 4 0 6 0;
#X connect 4 0 7 0;
#X connect 4 0 8 0;
#X connect 4 0 9 0;
#X connect 4 0 10 0;
#X connect 4 0 11 0;
#X connect 5 0 2 0;
#X connect 6 0 2 1;
#X connect 7 0 2 2;
#X connect 8 0 2 3;
#X connect 9 0 2 4;
#X connect 10 0 2 5;
#X connect 11 0 2 6;
#X restore 199 98 pd four;
#N canvas 507 81 450 300 five 0;
#X obj 197 34 inlet;
#X obj 201 240 outlet;
#X obj 157 201 pack f f f f f f f;
#X obj 109 121 delay 1;
#X obj 196 64 t b;
#X msg 136 163 0;
#X msg 171 163 -0.95;
#X msg 204 162 0.76;
#X msg 239 160 19;
#X msg 273 160 10;
#X msg 309 160 0.1;
#X msg 102 164 0;
#X connect 0 0 4 0;
#X connect 2 0 1 0;
#X connect 3 0 11 0;
#X connect 4 0 3 0;
#X connect 4 0 5 0;
#X connect 4 0 6 0;
#X connect 4 0 7 0;
#X connect 4 0 8 0;
#X connect 4 0 9 0;
#X connect 4 0 10 0;
#X connect 5 0 2 1;
#X connect 6 0 2 2;
#X connect 7 0 2 3;
#X connect 8 0 2 4;
#X connect 9 0 2 5;
#X connect 10 0 2 6;
#X connect 11 0 2 0;
#X restore 99 118 pd five;
#N canvas 507 81 450 300 six 0;
#X obj 197 34 inlet;
#X obj 201 240 outlet;
#X obj 157 201 pack f f f f f f f;
#X obj 109 121 delay 1;
#X obj 196 64 t b;
#X msg 102 164 0;
#X msg 273 160 50;
#X msg 239 160 70;
#X msg 309 160 0.05;
#X msg 204 162 0.85;
#X msg 170 163 -0.3;
#X msg 138 165 0;
#X connect 0 0 4 0;
#X connect 2 0 1 0;
#X connect 3 0 5 0;
#X connect 4 0 3 0;
#X connect 4 0 10 0;
#X connect 4 0 9 0;
#X connect 4 0 7 0;
#X connect 4 0 6 0;
#X connect 4 0 8 0;
#X connect 4 0 11 0;
#X connect 5 0 2 0;
#X connect 6 0 2 5;
#X connect 7 0 2 4;
#X connect 8 0 2 6;
#X connect 9 0 2 3;
#X connect 10 0 2 2;
#X connect 11 0 2 1;
#X restore 159 118 pd six;
#N canvas 507 81 450 300 seven 0;
#X obj 197 34 inlet;
#X obj 201 240 outlet;
#X obj 157 201 pack f f f f f f f;
#X obj 109 121 delay 1;
#X obj 196 64 t b;
#X msg 102 164 0;
#X msg 136 163 0;
#X msg 239 160 53;
#X msg 273 160 43;
#X msg 170 163 -0.22;
#X msg 204 162 1;
#X msg 309 160 0;
#X connect 0 0 4 0;
#X connect 2 0 1 0;
#X connect 3 0 5 0;
#X connect 4 0 3 0;
#X connect 4 0 6 0;
#X connect 4 0 9 0;
#X connect 4 0 10 0;
#X connect 4 0 7 0;
#X connect 4 0 8 0;
#X connect 4 0 11 0;
#X connect 5 0 2 0;
#X connect 6 0 2 1;
#X connect 7 0 2 4;
#X connect 8 0 2 5;
#X connect 9 0 2 2;
#X connect 10 0 2 3;
#X connect 11 0 2 6;
#X restore 209 118 pd seven;
#N canvas 507 81 450 300 eight 0;
#X obj 197 34 inlet;
#X obj 201 240 outlet;
#X obj 157 201 pack f f f f f f f;
#X obj 109 121 delay 1;
#X obj 196 64 t b;
#X msg 136 163 0;
#X msg 170 163 -1;
#X msg 205 162 0.95;
#X msg 309 160 0.64;
#X msg 239 160 4;
#X msg 273 160 61;
#X msg 102 164 1;
#X connect 0 0 4 0;
#X connect 2 0 1 0;
#X connect 3 0 11 0;
#X connect 4 0 3 0;
#X connect 4 0 5 0;
#X connect 4 0 6 0;
#X connect 4 0 7 0;
#X connect 4 0 9 0;
#X connect 4 0 10 0;
#X connect 4 0 8 0;
#X connect 5 0 2 1;
#X connect 6 0 2 2;
#X connect 7 0 2 3;
#X connect 8 0 2 6;
#X connect 9 0 2 4;
#X connect 10 0 2 5;
#X connect 11 0 2 0;
#X restore 269 118 pd eight;
#N canvas 507 81 450 300 nine 0;
#X obj 197 34 inlet;
#X obj 201 240 outlet;
#X obj 157 201 pack f f f f f f f;
#X obj 109 121 delay 1;
#X obj 196 64 t b;
#X msg 102 164 0;
#X msg 136 163 0;
#X msg 239 160 53;
#X msg 273 160 43;
#X msg 170 163 -0.22;
#X msg 204 162 1;
#X msg 309 160 0;
#X connect 0 0 4 0;
#X connect 2 0 1 0;
#X connect 3 0 5 0;
#X connect 4 0 3 0;
#X connect 4 0 6 0;
#X connect 4 0 9 0;
#X connect 4 0 10 0;
#X connect 4 0 7 0;
#X connect 4 0 8 0;
#X connect 4 0 11 0;
#X connect 5 0 2 0;
#X connect 6 0 2 1;
#X connect 7 0 2 4;
#X connect 8 0 2 5;
#X connect 9 0 2 2;
#X connect 10 0 2 3;
#X connect 11 0 2 6;
#X restore 169 138 pd nine;
#N canvas 507 81 450 300 ten 0;
#X obj 197 34 inlet;
#X obj 201 240 outlet;
#X obj 157 201 pack f f f f f f f;
#X obj 109 121 delay 1;
#X obj 196 64 t b;
#X msg 136 163 0;
#X msg 204 162 1;
#X msg 309 160 1;
#X msg 102 164 1;
#X msg 170 163 -1;
#X msg 239 160 8;
#X msg 273 160 13;
#X connect 0 0 4 0;
#X connect 2 0 1 0;
#X connect 3 0 8 0;
#X connect 4 0 3 0;
#X connect 4 0 5 0;
#X connect 4 0 9 0;
#X connect 4 0 6 0;
#X connect 4 0 10 0;
#X connect 4 0 11 0;
#X connect 4 0 7 0;
#X connect 5 0 2 1;
#X connect 6 0 2 3;
#X connect 7 0 2 6;
#X connect 8 0 2 0;
#X connect 9 0 2 2;
#X connect 10 0 2 4;
#X connect 11 0 2 5;
#X restore 222 138 pd ten;
#N canvas 507 81 450 300 eleven 0;
#X obj 197 34 inlet;
#X obj 201 240 outlet;
#X obj 157 201 pack f f f f f f f;
#X obj 109 121 delay 1;
#X obj 196 64 t b;
#X msg 102 164 0;
#X msg 136 163 0;
#X msg 309 160 0.28;
#X msg 273 160 32;
#X msg 239 160 52;
#X msg 211 162 0.25;
#X msg 170 163 -0.9;
#X connect 0 0 4 0;
#X connect 2 0 1 0;
#X connect 3 0 5 0;
#X connect 4 0 3 0;
#X connect 4 0 6 0;
#X connect 4 0 11 0;
#X connect 4 0 10 0;
#X connect 4 0 9 0;
#X connect 4 0 8 0;
#X connect 4 0 7 0;
#X connect 5 0 2 0;
#X connect 6 0 2 1;
#X connect 7 0 2 6;
#X connect 8 0 2 5;
#X connect 9 0 2 4;
#X connect 10 0 2 3;
#X connect 11 0 2 2;
#X restore 269 138 pd eleven;
#N canvas 507 81 450 300 twelve 0;
#X obj 197 34 inlet;
#X obj 201 240 outlet;
#X obj 157 201 pack f f f f f f f;
#X obj 109 121 delay 1;
#X obj 196 64 t b;
#X msg 102 164 0;
#X msg 136 163 0;
#X msg 309 160 0.1;
#X msg 273 160 49;
#X msg 239 160 61;
#X msg 213 162 0.56;
#X msg 169 163 -0.75;
#X connect 0 0 4 0;
#X connect 2 0 1 0;
#X connect 3 0 5 0;
#X connect 4 0 3 0;
#X connect 4 0 6 0;
#X connect 4 0 11 0;
#X connect 4 0 10 0;
#X connect 4 0 9 0;
#X connect 4 0 8 0;
#X connect 4 0 7 0;
#X connect 5 0 2 0;
#X connect 6 0 2 1;
#X connect 7 0 2 6;
#X connect 8 0 2 5;
#X connect 9 0 2 4;
#X connect 10 0 2 3;
#X connect 11 0 2 2;
#X restore 329 138 pd twelve;
#N canvas 507 81 450 300 thirteen 0;
#X obj 197 34 inlet;
#X obj 201 240 outlet;
#X obj 157 201 pack f f f f f f f;
#X obj 109 121 delay 1;
#X obj 196 64 t b;
#X msg 136 163 0;
#X msg 309 160 0.87;
#X msg 166 163 -0.78;
#X msg 208 162 0.67;
#X msg 102 164 1;
#X msg 239 160 38;
#X msg 273 160 17;
#X connect 0 0 4 0;
#X connect 2 0 1 0;
#X connect 3 0 9 0;
#X connect 4 0 3 0;
#X connect 4 0 5 0;
#X connect 4 0 7 0;
#X connect 4 0 8 0;
#X connect 4 0 10 0;
#X connect 4 0 11 0;
#X connect 4 0 6 0;
#X connect 5 0 2 1;
#X connect 6 0 2 6;
#X connect 7 0 2 2;
#X connect 8 0 2 3;
#X connect 9 0 2 0;
#X connect 10 0 2 4;
#X connect 11 0 2 5;
#X restore 149 158 pd thirteen;
#N canvas 507 81 450 300 fourteen 0;
#X obj 197 34 inlet;
#X obj 201 240 outlet;
#X obj 157 201 pack f f f f f f f;
#X obj 109 121 delay 1;
#X obj 196 64 t b;
#X msg 102 164 0;
#X msg 136 163 0;
#X msg 309 160 0.93;
#X msg 273 160 25;
#X msg 239 160 23;
#X msg 210 162 0.25;
#X msg 170 163 -1;
#X connect 0 0 4 0;
#X connect 2 0 1 0;
#X connect 3 0 5 0;
#X connect 4 0 3 0;
#X connect 4 0 6 0;
#X connect 4 0 11 0;
#X connect 4 0 10 0;
#X connect 4 0 9 0;
#X connect 4 0 8 0;
#X connect 4 0 7 0;
#X connect 5 0 2 0;
#X connect 6 0 2 1;
#X connect 7 0 2 6;
#X connect 8 0 2 5;
#X connect 9 0 2 4;
#X connect 10 0 2 3;
#X connect 11 0 2 2;
#X restore 229 158 pd fourteen;
#N canvas 507 81 450 300 fifteen 0;
#X obj 197 34 inlet;
#X obj 201 240 outlet;
#X obj 157 201 pack f f f f f f f;
#X obj 109 121 delay 1;
#X obj 196 64 t b;
#X msg 102 164 0;
#X msg 136 163 0;
#X msg 239 160 53;
#X msg 273 160 43;
#X msg 170 163 -0.22;
#X msg 204 162 1;
#X msg 309 160 0;
#X connect 0 0 4 0;
#X connect 2 0 1 0;
#X connect 3 0 5 0;
#X connect 4 0 3 0;
#X connect 4 0 6 0;
#X connect 4 0 9 0;
#X connect 4 0 10 0;
#X connect 4 0 7 0;
#X connect 4 0 8 0;
#X connect 4 0 11 0;
#X connect 5 0 2 0;
#X connect 6 0 2 1;
#X connect 7 0 2 4;
#X connect 8 0 2 5;
#X connect 9 0 2 2;
#X connect 10 0 2 3;
#X connect 11 0 2 6;
#X restore 309 158 pd fifteen;
#N canvas 507 81 450 300 sixteen 0;
#X obj 197 34 inlet;
#X obj 201 240 outlet;
#X obj 157 201 pack f f f f f f f;
#X obj 109 121 delay 1;
#X obj 196 64 t b;
#X msg 136 163 0;
#X msg 102 164 1;
#X msg 309 160 0.53;
#X msg 273 160 33;
#X msg 239 160 52;
#X msg 207 162 0.81;
#X msg 170 163 -0.75;
#X connect 0 0 4 0;
#X connect 2 0 1 0;
#X connect 3 0 6 0;
#X connect 4 0 3 0;
#X connect 4 0 5 0;
#X connect 4 0 11 0;
#X connect 4 0 10 0;
#X connect 4 0 9 0;
#X connect 4 0 8 0;
#X connect 4 0 7 0;
#X connect 5 0 2 1;
#X connect 6 0 2 0;
#X connect 7 0 2 6;
#X connect 8 0 2 5;
#X connect 9 0 2 4;
#X connect 10 0 2 3;
#X connect 11 0 2 2;
#X restore 379 158 pd sixteen;
#X obj 370 26 inlet;
#X obj 74 287 line;
#X obj 75 265 pack f f;
#X obj 368 56 s \$0-sweepTime;
#X obj 80 244 r \$0-sweepTime;
#X obj 254 287 line;
#X obj 255 265 pack f f;
#X obj 260 244 r \$0-sweepTime;
#X obj 344 287 line;
#X obj 345 265 pack f f;
#X obj 350 244 r \$0-sweepTime;
#X obj 264 357 line;
#X obj 265 335 pack f f;
#X obj 270 314 r \$0-sweepTime;
#X obj 354 357 line;
#X obj 355 335 pack f f;
#X obj 360 314 r \$0-sweepTime;
#X obj 444 357 line;
#X obj 445 335 pack f f;
#X obj 450 314 r \$0-sweepTime;
#X connect 7 0 8 0;
#X connect 8 0 9 0;
#X connect 8 1 11 0;
#X connect 8 2 12 0;
#X connect 8 3 13 0;
#X connect 8 4 14 0;
#X connect 8 5 15 0;
#X connect 8 6 16 0;
#X connect 8 7 17 0;
#X connect 8 8 18 0;
#X connect 8 9 19 0;
#X connect 8 10 20 0;
#X connect 8 11 21 0;
#X connect 8 12 22 0;
#X connect 8 13 23 0;
#X connect 8 14 24 0;
#X connect 8 15 25 0;
#X connect 9 0 10 0;
#X connect 10 0 28 0;
#X connect 10 1 1 0;
#X connect 10 2 32 0;
#X connect 10 3 35 0;
#X connect 10 4 38 0;
#X connect 10 5 41 0;
#X connect 10 6 44 0;
#X connect 11 0 10 0;
#X connect 12 0 10 0;
#X connect 13 0 10 0;
#X connect 14 0 10 0;
#X connect 15 0 10 0;
#X connect 16 0 10 0;
#X connect 17 0 10 0;
#X connect 18 0 10 0;
#X connect 19 0 10 0;
#X connect 20 0 10 0;
#X connect 21 0 10 0;
#X connect 22 0 10 0;
#X connect 23 0 10 0;
#X connect 24 0 10 0;
#X connect 25 0 10 0;
#X connect 26 0 29 0;
#X connect 27 0 0 0;
#X connect 28 0 27 0;
#X connect 30 0 28 1;
#X connect 31 0 2 0;
#X connect 32 0 31 0;
#X connect 33 0 32 1;
#X connect 34 0 3 0;
#X connect 35 0 34 0;
#X connect 36 0 35 1;
#X connect 37 0 4 0;
#X connect 38 0 37 0;
#X connect 39 0 38 1;
#X connect 40 0 5 0;
#X connect 41 0 40 0;
#X connect 42 0 41 1;
#X connect 43 0 6 0;
#X connect 44 0 43 0;
#X connect 45 0 44 1;
#X restore 225 142 pd chripPresetHolder;
#X msg 173 48 1;
#X msg 213 51 2;
#X msg 255 49 3;
#X msg 285 49 4;
#X msg 173 69 5;
#X msg 213 72 6;
#X msg 255 70 7;
#X msg 284 70 8;
#X msg 173 88 9;
#X msg 213 91 10;
#X msg 255 89 11;
#X msg 285 89 12;
#X msg 173 109 13;
#X msg 213 112 14;
#X msg 255 110 15;
#X msg 285 110 16;
#N canvas 863 80 621 582 pulsePresetHolder 0;
#X obj 83 482 outlet;
#X obj 133 482 outlet;
#X obj 183 482 outlet;
#X obj 233 482 outlet;
#X obj 283 482 outlet;
#X obj 333 482 outlet;
#X obj 383 482 outlet;
#X obj 214 11 inlet;
#X obj 86 53 route 1 2 3 4 5 6 7 8 9 10 11 12 13 14 15 16;
#N canvas 13 705 450 300 one 0;
#X obj 197 34 inlet;
#X obj 201 240 outlet;
#X obj 109 121 delay 1;
#X obj 196 64 t b;
#X obj 157 201 pack f f f f f f f f f f;
#X msg 62 164 0.75;
#X msg 96 163 50;
#X msg 164 162 7000;
#X msg 199 160 1;
#X msg 233 160 2800;
#X msg 269 160 4100;
#X msg 310 160 3500;
#X msg 343 160 0.761;
#X msg 379 160 2.428;
#X msg 130 164 0;
#X connect 0 0 3 0;
#X connect 2 0 5 0;
#X connect 3 0 2 0;
#X connect 3 0 6 0;
#X connect 3 0 14 0;
#X connect 3 0 7 0;
#X connect 3 0 8 0;
#X connect 3 0 9 0;
#X connect 3 0 10 0;
#X connect 3 0 11 0;
#X connect 3 0 12 0;
#X connect 3 0 13 0;
#X connect 4 0 1 0;
#X connect 5 0 4 0;
#X connect 6 0 4 1;
#X connect 7 0 4 3;
#X connect 8 0 4 4;
#X connect 9 0 4 5;
#X connect 10 0 4 6;
#X connect 11 0 4 7;
#X connect 12 0 4 8;
#X connect 13 0 4 9;
#X connect 14 0 4 2;
#X restore 39 98 pd one;
#X obj 370 26 inlet;
#X obj 74 287 line;
#X obj 75 265 pack f f;
#X obj 368 56 s \$0-sweepTime;
#X obj 80 244 r \$0-sweepTime;
#X obj 164 287 line;
#X obj 165 265 pack f f;
#X obj 170 244 r \$0-sweepTime;
#X obj 254 287 line;
#X obj 255 265 pack f f;
#X obj 260 244 r \$0-sweepTime;
#X obj 344 287 line;
#X obj 345 265 pack f f;
#X obj 350 244 r \$0-sweepTime;
#X obj 434 287 line;
#X obj 435 265 pack f f;
#X obj 440 244 r \$0-sweepTime;
#X obj 65 425 line;
#X obj 66 403 pack f f;
#X obj 71 382 r \$0-sweepTime;
#X obj 155 425 line;
#X obj 156 403 pack f f;
#X obj 161 382 r \$0-sweepTime;
#X obj 167 209 unpack f f f f f f f f f f;
#X obj 433 482 outlet;
#X obj 483 482 outlet;
#X obj 533 482 outlet;
#X obj 254 427 line;
#X obj 255 405 pack f f;
#X obj 260 384 r \$0-sweepTime;
#X obj 344 427 line;
#X obj 345 405 pack f f;
#X obj 350 384 r \$0-sweepTime;
#X obj 434 427 line;
#X obj 435 405 pack f f;
#X obj 440 384 r \$0-sweepTime;
#N canvas 21 689 450 300 two 0;
#X obj 197 34 inlet;
#X obj 201 240 outlet;
#X obj 109 121 delay 1;
#X obj 196 64 t b;
#X obj 157 201 pack f f f f f f f f f f;
#X msg 62 164 0.13;
#X msg 96 163 45;
#X msg 130 163 0.36;
#X msg 164 162 25;
#X msg 199 160 100;
#X msg 233 160 15;
#X msg 269 160 1000;
#X msg 309 160 1000.1;
#X msg 353 160 3.1;
#X msg 379 160 2.41;
#X connect 0 0 3 0;
#X connect 2 0 5 0;
#X connect 3 0 2 0;
#X connect 3 0 6 0;
#X connect 3 0 7 0;
#X connect 3 0 8 0;
#X connect 3 0 9 0;
#X connect 3 0 10 0;
#X connect 3 0 11 0;
#X connect 3 0 12 0;
#X connect 3 0 13 0;
#X connect 3 0 14 0;
#X connect 4 0 1 0;
#X connect 5 0 4 0;
#X connect 6 0 4 1;
#X connect 7 0 4 2;
#X connect 8 0 4 3;
#X connect 9 0 4 4;
#X connect 10 0 4 5;
#X connect 11 0 4 6;
#X connect 12 0 4 7;
#X connect 13 0 4 8;
#X connect 14 0 4 9;
#X restore 99 98 pd two;
#N canvas 508 704 450 300 three 0;
#X obj 197 34 inlet;
#X obj 201 240 outlet;
#X obj 109 121 delay 1;
#X obj 196 64 t b;
#X obj 157 201 pack f f f f f f f f f f;
#X msg 130 163 0.94;
#X msg 62 164 1;
#X msg 233 160 500;
#X msg 199 160 100;
#X msg 342 160 2.5;
#X msg 379 161 3.4;
#X msg 164 162 15000;
#X msg 305 160 1500;
#X msg 268 160 200;
#X msg 96 163 1;
#X connect 0 0 3 0;
#X connect 2 0 6 0;
#X connect 3 0 2 0;
#X connect 3 0 14 0;
#X connect 3 0 5 0;
#X connect 3 0 11 0;
#X connect 3 0 8 0;
#X connect 3 0 7 0;
#X connect 3 0 13 0;
#X connect 3 0 12 0;
#X connect 3 0 9 0;
#X connect 3 0 10 0;
#X connect 4 0 1 0;
#X connect 5 0 4 2;
#X connect 6 0 4 0;
#X connect 7 0 4 5;
#X connect 8 0 4 4;
#X connect 9 0 4 8;
#X connect 10 0 4 9;
#X connect 11 0 4 3;
#X connect 12 0 4 7;
#X connect 13 0 4 6;
#X connect 14 0 4 1;
#X restore 159 98 pd three;
#N canvas 829 87 450 300 four 0;
#X obj 197 34 inlet;
#X obj 201 240 outlet;
#X obj 109 121 delay 1;
#X obj 196 64 t b;
#X obj 157 201 pack f f f f f f f f f f;
#X msg 96 163 50;
#X msg 130 163 0.74;
#X msg 164 162 15000;
#X msg 199 160 100;
#X msg 233 160 500;
#X msg 269 160 200;
#X msg 309 160 1500;
#X msg 343 160 2.5;
#X msg 379 160 3.4;
#X msg 62 164 0.67;
#X connect 0 0 3 0;
#X connect 2 0 14 0;
#X connect 3 0 2 0;
#X connect 3 0 5 0;
#X connect 3 0 6 0;
#X connect 3 0 7 0;
#X connect 3 0 8 0;
#X connect 3 0 9 0;
#X connect 3 0 10 0;
#X connect 3 0 11 0;
#X connect 3 0 12 0;
#X connect 3 0 13 0;
#X connect 4 0 1 0;
#X connect 5 0 4 1;
#X connect 6 0 4 2;
#X connect 7 0 4 3;
#X connect 8 0 4 4;
#X connect 9 0 4 5;
#X connect 10 0 4 6;
#X connect 11 0 4 7;
#X connect 12 0 4 8;
#X connect 13 0 4 9;
#X connect 14 0 4 0;
#X restore 219 98 pd four;
#N canvas 31 637 450 300 five 0;
#X obj 197 34 inlet;
#X obj 201 240 outlet;
#X obj 109 121 delay 1;
#X obj 196 64 t b;
#X obj 157 201 pack f f f f f f f f f f;
#X msg 62 164 0.15;
#X msg 96 163 37;
#X msg 130 163 0.51;
#X msg 164 162 1000;
#X msg 199 160 600;
#X msg 233 160 1500;
#X msg 269 160 6730;
#X msg 343 160 2;
#X msg 379 160 3;
#X msg 309 160 3020;
#X connect 0 0 3 0;
#X connect 2 0 5 0;
#X connect 3 0 2 0;
#X connect 3 0 6 0;
#X connect 3 0 7 0;
#X connect 3 0 8 0;
#X connect 3 0 9 0;
#X connect 3 0 10 0;
#X connect 3 0 11 0;
#X connect 3 0 14 0;
#X connect 3 0 12 0;
#X connect 3 0 13 0;
#X connect 4 0 1 0;
#X connect 5 0 4 0;
#X connect 6 0 4 1;
#X connect 7 0 4 2;
#X connect 8 0 4 3;
#X connect 9 0 4 4;
#X connect 10 0 4 5;
#X connect 11 0 4 6;
#X connect 12 0 4 8;
#X connect 13 0 4 9;
#X connect 14 0 4 7;
#X restore 119 118 pd five;
#N canvas 23 680 450 300 six 0;
#X obj 197 34 inlet;
#X obj 201 240 outlet;
#X obj 109 121 delay 1;
#X obj 196 64 t b;
#X msg 269 160 0.33;
#X msg 199 160 53;
#X msg 233 160 43;
#X msg 164 162 1;
#X obj 157 201 pack f f f f f f f f f f;
#X msg 379 160 0.33;
#X msg 309 160 53;
#X msg 343 160 43;
#X msg 62 164 0.62;
#X msg 96 163 50;
#X msg 130 163 0;
#X connect 0 0 3 0;
#X connect 2 0 12 0;
#X connect 3 0 2 0;
#X connect 3 0 13 0;
#X connect 3 0 14 0;
#X connect 3 0 7 0;
#X connect 3 0 5 0;
#X connect 3 0 6 0;
#X connect 3 0 4 0;
#X connect 3 0 10 0;
#X connect 3 0 11 0;
#X connect 3 0 9 0;
#X connect 4 0 8 6;
#X connect 5 0 8 4;
#X connect 6 0 8 5;
#X connect 7 0 8 3;
#X connect 8 0 1 0;
#X connect 9 0 8 9;
#X connect 10 0 8 7;
#X connect 11 0 8 8;
#X connect 12 0 8 0;
#X connect 13 0 8 1;
#X connect 14 0 8 2;
#X restore 179 118 pd six;
#N canvas 507 81 450 300 seven 0;
#X obj 197 34 inlet;
#X obj 201 240 outlet;
#X obj 109 121 delay 1;
#X obj 196 64 t b;
#X msg 62 164 0;
#X msg 96 163 0;
#X msg 269 160 0.33;
#X msg 199 160 53;
#X msg 233 160 43;
#X msg 164 162 1;
#X obj 157 201 pack f f f f f f f f f f;
#X msg 379 160 0.33;
#X msg 309 160 53;
#X msg 343 160 43;
#X msg 130 163 0;
#X connect 0 0 3 0;
#X connect 2 0 4 0;
#X connect 3 0 2 0;
#X connect 3 0 5 0;
#X connect 3 0 14 0;
#X connect 3 0 9 0;
#X connect 3 0 7 0;
#X connect 3 0 8 0;
#X connect 3 0 6 0;
#X connect 3 0 12 0;
#X connect 3 0 13 0;
#X connect 3 0 11 0;
#X connect 4 0 10 0;
#X connect 5 0 10 1;
#X connect 6 0 10 6;
#X connect 7 0 10 4;
#X connect 8 0 10 5;
#X connect 9 0 10 3;
#X connect 10 0 1 0;
#X connect 11 0 10 9;
#X connect 12 0 10 7;
#X connect 13 0 10 8;
#X connect 14 0 10 2;
#X restore 239 118 pd seven;
#N canvas 507 81 450 300 eight 0;
#X obj 197 34 inlet;
#X obj 201 240 outlet;
#X obj 109 121 delay 1;
#X obj 196 64 t b;
#X obj 157 201 pack f f f f f f f f f f;
#X msg 96 163 40;
#X msg 62 164 0.51;
#X msg 164 162 9011;
#X msg 309 160 6748;
#X msg 199 160 900;
#X msg 233 160 900;
#X msg 269 160 18244;
#X msg 379 160 1;
#X msg 343 160 1;
#X msg 130 163 0.13;
#X connect 0 0 3 0;
#X connect 2 0 6 0;
#X connect 3 0 2 0;
#X connect 3 0 5 0;
#X connect 3 0 14 0;
#X connect 3 0 7 0;
#X connect 3 0 9 0;
#X connect 3 0 10 0;
#X connect 3 0 11 0;
#X connect 3 0 8 0;
#X connect 3 0 13 0;
#X connect 3 0 12 0;
#X connect 4 0 1 0;
#X connect 5 0 4 1;
#X connect 6 0 4 0;
#X connect 7 0 4 3;
#X connect 8 0 4 7;
#X connect 9 0 4 4;
#X connect 10 0 4 5;
#X connect 11 0 4 6;
#X connect 12 0 4 9;
#X connect 13 0 4 8;
#X connect 14 0 4 2;
#X restore 299 118 pd eight;
#N canvas 507 81 450 300 nine 0;
#X obj 197 34 inlet;
#X obj 201 240 outlet;
#X obj 109 121 delay 1;
#X obj 196 64 t b;
#X msg 62 164 0;
#X msg 96 163 0;
#X msg 269 160 0.33;
#X msg 199 160 53;
#X msg 233 160 43;
#X msg 130 163 -0.22;
#X msg 164 162 1;
#X obj 157 201 pack f f f f f f f f f f;
#X msg 379 160 0.33;
#X msg 309 160 53;
#X msg 343 160 43;
#X connect 0 0 3 0;
#X connect 2 0 4 0;
#X connect 3 0 2 0;
#X connect 3 0 5 0;
#X connect 3 0 9 0;
#X connect 3 0 10 0;
#X connect 3 0 7 0;
#X connect 3 0 8 0;
#X connect 3 0 6 0;
#X connect 3 0 13 0;
#X connect 3 0 14 0;
#X connect 3 0 12 0;
#X connect 4 0 11 0;
#X connect 5 0 11 1;
#X connect 6 0 11 6;
#X connect 7 0 11 4;
#X connect 8 0 11 5;
#X connect 9 0 11 2;
#X connect 10 0 11 3;
#X connect 11 0 1 0;
#X connect 12 0 11 9;
#X connect 13 0 11 7;
#X connect 14 0 11 8;
#X restore 199 138 pd nine;
#N canvas 507 81 450 300 ten 0;
#X obj 197 34 inlet;
#X obj 201 240 outlet;
#X obj 109 121 delay 1;
#X obj 196 64 t b;
#X msg 62 164 0;
#X msg 96 163 0;
#X msg 269 160 0.33;
#X msg 199 160 53;
#X msg 233 160 43;
#X msg 164 162 1;
#X obj 157 201 pack f f f f f f f f f f;
#X msg 379 160 0.33;
#X msg 309 160 53;
#X msg 343 160 43;
#X msg 130 163 0;
#X connect 0 0 3 0;
#X connect 2 0 4 0;
#X connect 3 0 2 0;
#X connect 3 0 5 0;
#X connect 3 0 14 0;
#X connect 3 0 9 0;
#X connect 3 0 7 0;
#X connect 3 0 8 0;
#X connect 3 0 6 0;
#X connect 3 0 12 0;
#X connect 3 0 13 0;
#X connect 3 0 11 0;
#X connect 4 0 10 0;
#X connect 5 0 10 1;
#X connect 6 0 10 6;
#X connect 7 0 10 4;
#X connect 8 0 10 5;
#X connect 9 0 10 3;
#X connect 10 0 1 0;
#X connect 11 0 10 9;
#X connect 12 0 10 7;
#X connect 13 0 10 8;
#X connect 14 0 10 2;
#X restore 259 138 pd ten;
#N canvas 507 81 450 300 eleven 0;
#X obj 197 34 inlet;
#X obj 201 240 outlet;
#X obj 109 121 delay 1;
#X obj 196 64 t b;
#X msg 62 164 0;
#X msg 96 163 0;
#X msg 269 160 0.33;
#X msg 199 160 53;
#X msg 233 160 43;
#X msg 164 162 1;
#X obj 157 201 pack f f f f f f f f f f;
#X msg 379 160 0.33;
#X msg 309 160 53;
#X msg 343 160 43;
#X msg 130 163 0;
#X connect 0 0 3 0;
#X connect 2 0 4 0;
#X connect 3 0 2 0;
#X connect 3 0 5 0;
#X connect 3 0 14 0;
#X connect 3 0 9 0;
#X connect 3 0 7 0;
#X connect 3 0 8 0;
#X connect 3 0 6 0;
#X connect 3 0 12 0;
#X connect 3 0 13 0;
#X connect 3 0 11 0;
#X connect 4 0 10 0;
#X connect 5 0 10 1;
#X connect 6 0 10 6;
#X connect 7 0 10 4;
#X connect 8 0 10 5;
#X connect 9 0 10 3;
#X connect 10 0 1 0;
#X connect 11 0 10 9;
#X connect 12 0 10 7;
#X connect 13 0 10 8;
#X connect 14 0 10 2;
#X restore 319 138 pd eleven;
#N canvas 507 81 450 300 twelve 0;
#X obj 197 34 inlet;
#X obj 201 240 outlet;
#X obj 109 121 delay 1;
#X obj 196 64 t b;
#X msg 62 164 0;
#X msg 96 163 0;
#X msg 269 160 0.33;
#X msg 199 160 53;
#X msg 233 160 43;
#X msg 130 163 -0.22;
#X msg 164 162 1;
#X obj 157 201 pack f f f f f f f f f f;
#X msg 379 160 0.33;
#X msg 309 160 53;
#X msg 343 160 43;
#X connect 0 0 3 0;
#X connect 2 0 4 0;
#X connect 3 0 2 0;
#X connect 3 0 5 0;
#X connect 3 0 9 0;
#X connect 3 0 10 0;
#X connect 3 0 7 0;
#X connect 3 0 8 0;
#X connect 3 0 6 0;
#X connect 3 0 13 0;
#X connect 3 0 14 0;
#X connect 3 0 12 0;
#X connect 4 0 11 0;
#X connect 5 0 11 1;
#X connect 6 0 11 6;
#X connect 7 0 11 4;
#X connect 8 0 11 5;
#X connect 9 0 11 2;
#X connect 10 0 11 3;
#X connect 11 0 1 0;
#X connect 12 0 11 9;
#X connect 13 0 11 7;
#X connect 14 0 11 8;
#X restore 379 138 pd twelve;
#N canvas 507 81 450 300 thirteen 0;
#X obj 197 34 inlet;
#X obj 201 240 outlet;
#X obj 109 121 delay 1;
#X obj 196 64 t b;
#X msg 62 164 0;
#X msg 96 163 0;
#X msg 269 160 0.33;
#X msg 199 160 53;
#X msg 233 160 43;
#X msg 164 162 1;
#X obj 157 201 pack f f f f f f f f f f;
#X msg 379 160 0.33;
#X msg 309 160 53;
#X msg 343 160 43;
#X msg 130 163 0;
#X connect 0 0 3 0;
#X connect 2 0 4 0;
#X connect 3 0 2 0;
#X connect 3 0 5 0;
#X connect 3 0 14 0;
#X connect 3 0 9 0;
#X connect 3 0 7 0;
#X connect 3 0 8 0;
#X connect 3 0 6 0;
#X connect 3 0 12 0;
#X connect 3 0 13 0;
#X connect 3 0 11 0;
#X connect 4 0 10 0;
#X connect 5 0 10 1;
#X connect 6 0 10 6;
#X connect 7 0 10 4;
#X connect 8 0 10 5;
#X connect 9 0 10 3;
#X connect 10 0 1 0;
#X connect 11 0 10 9;
#X connect 12 0 10 7;
#X connect 13 0 10 8;
#X connect 14 0 10 2;
#X restore 239 158 pd thirteen;
#N canvas 507 81 450 300 fourteen 0;
#X obj 197 34 inlet;
#X obj 201 240 outlet;
#X obj 109 121 delay 1;
#X obj 196 64 t b;
#X msg 62 164 0;
#X msg 96 163 0;
#X msg 269 160 0.33;
#X msg 199 160 53;
#X msg 233 160 43;
#X msg 130 163 -0.22;
#X msg 164 162 1;
#X obj 157 201 pack f f f f f f f f f f;
#X msg 379 160 0.33;
#X msg 309 160 53;
#X msg 343 160 43;
#X connect 0 0 3 0;
#X connect 2 0 4 0;
#X connect 3 0 2 0;
#X connect 3 0 5 0;
#X connect 3 0 9 0;
#X connect 3 0 10 0;
#X connect 3 0 7 0;
#X connect 3 0 8 0;
#X connect 3 0 6 0;
#X connect 3 0 13 0;
#X connect 3 0 14 0;
#X connect 3 0 12 0;
#X connect 4 0 11 0;
#X connect 5 0 11 1;
#X connect 6 0 11 6;
#X connect 7 0 11 4;
#X connect 8 0 11 5;
#X connect 9 0 11 2;
#X connect 10 0 11 3;
#X connect 11 0 1 0;
#X connect 12 0 11 9;
#X connect 13 0 11 7;
#X connect 14 0 11 8;
#X restore 319 158 pd fourteen;
#N canvas 507 81 450 300 fifteen 0;
#X obj 197 34 inlet;
#X obj 201 240 outlet;
#X obj 109 121 delay 1;
#X obj 196 64 t b;
#X msg 62 164 0;
#X msg 96 163 0;
#X msg 269 160 0.33;
#X msg 199 160 53;
#X msg 233 160 43;
#X msg 164 162 1;
#X obj 157 201 pack f f f f f f f f f f;
#X msg 379 160 0.33;
#X msg 309 160 53;
#X msg 343 160 43;
#X msg 130 163 0;
#X connect 0 0 3 0;
#X connect 2 0 4 0;
#X connect 3 0 2 0;
#X connect 3 0 5 0;
#X connect 3 0 14 0;
#X connect 3 0 9 0;
#X connect 3 0 7 0;
#X connect 3 0 8 0;
#X connect 3 0 6 0;
#X connect 3 0 12 0;
#X connect 3 0 13 0;
#X connect 3 0 11 0;
#X connect 4 0 10 0;
#X connect 5 0 10 1;
#X connect 6 0 10 6;
#X connect 7 0 10 4;
#X connect 8 0 10 5;
#X connect 9 0 10 3;
#X connect 10 0 1 0;
#X connect 11 0 10 9;
#X connect 12 0 10 7;
#X connect 13 0 10 8;
#X connect 14 0 10 2;
#X restore 399 158 pd fifteen;
#N canvas 507 81 450 300 sixteen 0;
#X obj 197 34 inlet;
#X obj 201 240 outlet;
#X obj 109 121 delay 1;
#X obj 196 64 t b;
#X msg 62 164 0;
#X msg 96 163 0;
#X msg 269 160 0.33;
#X msg 199 160 53;
#X msg 233 160 43;
#X msg 130 163 -0.22;
#X msg 164 162 1;
#X obj 157 201 pack f f f f f f f f f f;
#X msg 379 160 0.33;
#X msg 309 160 53;
#X msg 343 160 43;
#X connect 0 0 3 0;
#X connect 2 0 4 0;
#X connect 3 0 2 0;
#X connect 3 0 5 0;
#X connect 3 0 9 0;
#X connect 3 0 10 0;
#X connect 3 0 7 0;
#X connect 3 0 8 0;
#X connect 3 0 6 0;
#X connect 3 0 13 0;
#X connect 3 0 14 0;
#X connect 3 0 12 0;
#X connect 4 0 11 0;
#X connect 5 0 11 1;
#X connect 6 0 11 6;
#X connect 7 0 11 4;
#X connect 8 0 11 5;
#X connect 9 0 11 2;
#X connect 10 0 11 3;
#X connect 11 0 1 0;
#X connect 12 0 11 9;
#X connect 13 0 11 7;
#X connect 14 0 11 8;
#X restore 469 158 pd sixteen;
#X connect 7 0 8 0;
#X connect 8 0 9 0;
#X connect 8 1 46 0;
#X connect 8 2 47 0;
#X connect 8 3 48 0;
#X connect 8 4 49 0;
#X connect 8 5 50 0;
#X connect 8 6 51 0;
#X connect 8 7 52 0;
#X connect 8 8 53 0;
#X connect 8 9 54 0;
#X connect 8 10 55 0;
#X connect 8 11 56 0;
#X connect 8 12 57 0;
#X connect 8 13 58 0;
#X connect 8 14 59 0;
#X connect 8 15 60 0;
#X connect 9 0 33 0;
#X connect 10 0 13 0;
#X connect 11 0 0 0;
#X connect 12 0 11 0;
#X connect 14 0 12 1;
#X connect 15 0 1 0;
#X connect 16 0 15 0;
#X connect 17 0 16 1;
#X connect 18 0 2 0;
#X connect 19 0 18 0;
#X connect 20 0 19 1;
#X connect 21 0 3 0;
#X connect 22 0 21 0;
#X connect 23 0 22 1;
#X connect 24 0 4 0;
#X connect 25 0 24 0;
#X connect 26 0 25 1;
#X connect 27 0 5 0;
#X connect 28 0 27 0;
#X connect 29 0 28 1;
#X connect 30 0 6 0;
#X connect 31 0 30 0;
#X connect 32 0 31 1;
#X connect 33 0 12 0;
#X connect 33 1 16 0;
#X connect 33 2 19 0;
#X connect 33 3 22 0;
#X connect 33 4 25 0;
#X connect 33 5 28 0;
#X connect 33 6 31 0;
#X connect 33 7 38 0;
#X connect 33 8 41 0;
#X connect 33 9 44 0;
#X connect 37 0 34 0;
#X connect 38 0 37 0;
#X connect 39 0 38 1;
#X connect 40 0 35 0;
#X connect 41 0 40 0;
#X connect 42 0 41 1;
#X connect 43 0 36 0;
#X connect 44 0 43 0;
#X connect 45 0 44 1;
#X connect 46 0 33 0;
#X connect 47 0 33 0;
#X connect 48 0 33 0;
#X connect 49 0 33 0;
#X connect 50 0 33 0;
#X connect 51 0 33 0;
#X connect 52 0 33 0;
#X connect 53 0 33 0;
#X connect 54 0 33 0;
#X connect 55 0 33 0;
#X connect 56 0 33 0;
#X connect 57 0 33 0;
#X connect 58 0 33 0;
#X connect 59 0 33 0;
#X connect 60 0 33 0;
#X restore 555 151 pd pulsePresetHolder;
#X msg 493 58 1;
#X msg 533 61 2;
#X msg 575 59 3;
#X msg 605 59 4;
#X msg 493 79 5;
#X msg 533 82 6;
#X msg 575 80 7;
#X msg 604 80 8;
#X msg 493 98 9;
#X msg 533 101 10;
#X msg 575 99 11;
#X msg 605 99 12;
#X msg 493 119 13;
#X msg 533 122 14;
#X msg 575 120 15;
#X msg 605 120 16;
#X msg 342 111 100;
#X obj 1427 137 s \$0-trigger;
#X obj 387 201 r \$0-trigger;
#X msg 662 121 800;
#N canvas 863 80 621 582 noiseyPresetHolder 0;
#X obj 83 482 outlet;
#X obj 133 482 outlet;
#X obj 183 482 outlet;
#X obj 233 482 outlet;
#X obj 283 482 outlet;
#X obj 333 482 outlet;
#X obj 383 482 outlet;
#X obj 214 11 inlet;
#X obj 86 53 route 1 2 3 4 5 6 7 8 9 10 11 12 13 14 15 16;
#N canvas 13 705 450 300 one 0;
#X obj 197 34 inlet;
#X obj 201 240 outlet;
#X obj 109 121 delay 1;
#X obj 196 64 t b;
#X obj 157 201 pack f f f f f f f f f f;
#X msg 62 164 0.75;
#X msg 96 163 50;
#X msg 164 162 7000;
#X msg 199 160 1;
#X msg 233 160 2800;
#X msg 269 160 4100;
#X msg 310 160 3500;
#X msg 343 160 0.761;
#X msg 379 160 2.428;
#X msg 130 164 0;
#X connect 0 0 3 0;
#X connect 2 0 5 0;
#X connect 3 0 2 0;
#X connect 3 0 6 0;
#X connect 3 0 14 0;
#X connect 3 0 7 0;
#X connect 3 0 8 0;
#X connect 3 0 9 0;
#X connect 3 0 10 0;
#X connect 3 0 11 0;
#X connect 3 0 12 0;
#X connect 3 0 13 0;
#X connect 4 0 1 0;
#X connect 5 0 4 0;
#X connect 6 0 4 1;
#X connect 7 0 4 3;
#X connect 8 0 4 4;
#X connect 9 0 4 5;
#X connect 10 0 4 6;
#X connect 11 0 4 7;
#X connect 12 0 4 8;
#X connect 13 0 4 9;
#X connect 14 0 4 2;
#X restore 39 98 pd one;
#X obj 370 26 inlet;
#X obj 74 287 line;
#X obj 75 265 pack f f;
#X obj 368 56 s \$0-sweepTime;
#X obj 80 244 r \$0-sweepTime;
#X obj 164 287 line;
#X obj 165 265 pack f f;
#X obj 170 244 r \$0-sweepTime;
#X obj 254 287 line;
#X obj 255 265 pack f f;
#X obj 260 244 r \$0-sweepTime;
#X obj 344 287 line;
#X obj 345 265 pack f f;
#X obj 350 244 r \$0-sweepTime;
#X obj 434 287 line;
#X obj 435 265 pack f f;
#X obj 440 244 r \$0-sweepTime;
#X obj 65 425 line;
#X obj 66 403 pack f f;
#X obj 71 382 r \$0-sweepTime;
#X obj 155 425 line;
#X obj 156 403 pack f f;
#X obj 161 382 r \$0-sweepTime;
#X obj 167 209 unpack f f f f f f f f f f;
#X obj 433 482 outlet;
#X obj 483 482 outlet;
#X obj 533 482 outlet;
#X obj 254 427 line;
#X obj 255 405 pack f f;
#X obj 260 384 r \$0-sweepTime;
#X obj 344 427 line;
#X obj 345 405 pack f f;
#X obj 350 384 r \$0-sweepTime;
#X obj 434 427 line;
#X obj 435 405 pack f f;
#X obj 440 384 r \$0-sweepTime;
#N canvas 21 689 450 300 two 0;
#X obj 197 34 inlet;
#X obj 201 240 outlet;
#X obj 109 121 delay 1;
#X obj 196 64 t b;
#X obj 157 201 pack f f f f f f f f f f;
#X msg 62 164 0.13;
#X msg 96 163 45;
#X msg 130 163 0.36;
#X msg 164 162 25;
#X msg 199 160 100;
#X msg 233 160 15;
#X msg 269 160 1000;
#X msg 309 160 1000.1;
#X msg 353 160 3.1;
#X msg 379 160 2.41;
#X connect 0 0 3 0;
#X connect 2 0 5 0;
#X connect 3 0 2 0;
#X connect 3 0 6 0;
#X connect 3 0 7 0;
#X connect 3 0 8 0;
#X connect 3 0 9 0;
#X connect 3 0 10 0;
#X connect 3 0 11 0;
#X connect 3 0 12 0;
#X connect 3 0 13 0;
#X connect 3 0 14 0;
#X connect 4 0 1 0;
#X connect 5 0 4 0;
#X connect 6 0 4 1;
#X connect 7 0 4 2;
#X connect 8 0 4 3;
#X connect 9 0 4 4;
#X connect 10 0 4 5;
#X connect 11 0 4 6;
#X connect 12 0 4 7;
#X connect 13 0 4 8;
#X connect 14 0 4 9;
#X restore 99 98 pd two;
#N canvas 508 704 450 300 three 0;
#X obj 197 34 inlet;
#X obj 201 240 outlet;
#X obj 109 121 delay 1;
#X obj 196 64 t b;
#X obj 157 201 pack f f f f f f f f f f;
#X msg 130 163 0.94;
#X msg 62 164 1;
#X msg 233 160 500;
#X msg 199 160 100;
#X msg 342 160 2.5;
#X msg 379 161 3.4;
#X msg 164 162 15000;
#X msg 305 160 1500;
#X msg 268 160 200;
#X msg 96 163 1;
#X connect 0 0 3 0;
#X connect 2 0 6 0;
#X connect 3 0 2 0;
#X connect 3 0 14 0;
#X connect 3 0 5 0;
#X connect 3 0 11 0;
#X connect 3 0 8 0;
#X connect 3 0 7 0;
#X connect 3 0 13 0;
#X connect 3 0 12 0;
#X connect 3 0 9 0;
#X connect 3 0 10 0;
#X connect 4 0 1 0;
#X connect 5 0 4 2;
#X connect 6 0 4 0;
#X connect 7 0 4 5;
#X connect 8 0 4 4;
#X connect 9 0 4 8;
#X connect 10 0 4 9;
#X connect 11 0 4 3;
#X connect 12 0 4 7;
#X connect 13 0 4 6;
#X connect 14 0 4 1;
#X restore 159 98 pd three;
#N canvas 829 87 450 300 four 0;
#X obj 197 34 inlet;
#X obj 201 240 outlet;
#X obj 109 121 delay 1;
#X obj 196 64 t b;
#X obj 157 201 pack f f f f f f f f f f;
#X msg 96 163 50;
#X msg 130 163 0.74;
#X msg 164 162 15000;
#X msg 199 160 100;
#X msg 233 160 500;
#X msg 269 160 200;
#X msg 309 160 1500;
#X msg 343 160 2.5;
#X msg 379 160 3.4;
#X msg 62 164 0.67;
#X connect 0 0 3 0;
#X connect 2 0 14 0;
#X connect 3 0 2 0;
#X connect 3 0 5 0;
#X connect 3 0 6 0;
#X connect 3 0 7 0;
#X connect 3 0 8 0;
#X connect 3 0 9 0;
#X connect 3 0 10 0;
#X connect 3 0 11 0;
#X connect 3 0 12 0;
#X connect 3 0 13 0;
#X connect 4 0 1 0;
#X connect 5 0 4 1;
#X connect 6 0 4 2;
#X connect 7 0 4 3;
#X connect 8 0 4 4;
#X connect 9 0 4 5;
#X connect 10 0 4 6;
#X connect 11 0 4 7;
#X connect 12 0 4 8;
#X connect 13 0 4 9;
#X connect 14 0 4 0;
#X restore 219 98 pd four;
#N canvas 31 637 450 300 five 0;
#X obj 197 34 inlet;
#X obj 201 240 outlet;
#X obj 109 121 delay 1;
#X obj 196 64 t b;
#X obj 157 201 pack f f f f f f f f f f;
#X msg 62 164 0.15;
#X msg 96 163 37;
#X msg 130 163 0.51;
#X msg 164 162 1000;
#X msg 199 160 600;
#X msg 233 160 1500;
#X msg 269 160 6730;
#X msg 343 160 2;
#X msg 379 160 3;
#X msg 309 160 3020;
#X connect 0 0 3 0;
#X connect 2 0 5 0;
#X connect 3 0 2 0;
#X connect 3 0 6 0;
#X connect 3 0 7 0;
#X connect 3 0 8 0;
#X connect 3 0 9 0;
#X connect 3 0 10 0;
#X connect 3 0 11 0;
#X connect 3 0 14 0;
#X connect 3 0 12 0;
#X connect 3 0 13 0;
#X connect 4 0 1 0;
#X connect 5 0 4 0;
#X connect 6 0 4 1;
#X connect 7 0 4 2;
#X connect 8 0 4 3;
#X connect 9 0 4 4;
#X connect 10 0 4 5;
#X connect 11 0 4 6;
#X connect 12 0 4 8;
#X connect 13 0 4 9;
#X connect 14 0 4 7;
#X restore 119 118 pd five;
#N canvas 23 680 450 300 six 0;
#X obj 197 34 inlet;
#X obj 201 240 outlet;
#X obj 109 121 delay 1;
#X obj 196 64 t b;
#X msg 269 160 0.33;
#X msg 199 160 53;
#X msg 233 160 43;
#X msg 164 162 1;
#X obj 157 201 pack f f f f f f f f f f;
#X msg 379 160 0.33;
#X msg 309 160 53;
#X msg 343 160 43;
#X msg 62 164 0.62;
#X msg 96 163 50;
#X msg 130 163 0;
#X connect 0 0 3 0;
#X connect 2 0 12 0;
#X connect 3 0 2 0;
#X connect 3 0 13 0;
#X connect 3 0 14 0;
#X connect 3 0 7 0;
#X connect 3 0 5 0;
#X connect 3 0 6 0;
#X connect 3 0 4 0;
#X connect 3 0 10 0;
#X connect 3 0 11 0;
#X connect 3 0 9 0;
#X connect 4 0 8 6;
#X connect 5 0 8 4;
#X connect 6 0 8 5;
#X connect 7 0 8 3;
#X connect 8 0 1 0;
#X connect 9 0 8 9;
#X connect 10 0 8 7;
#X connect 11 0 8 8;
#X connect 12 0 8 0;
#X connect 13 0 8 1;
#X connect 14 0 8 2;
#X restore 179 118 pd six;
#N canvas 507 81 450 300 seven 0;
#X obj 197 34 inlet;
#X obj 201 240 outlet;
#X obj 109 121 delay 1;
#X obj 196 64 t b;
#X msg 62 164 0;
#X msg 96 163 0;
#X msg 269 160 0.33;
#X msg 199 160 53;
#X msg 233 160 43;
#X msg 164 162 1;
#X obj 157 201 pack f f f f f f f f f f;
#X msg 379 160 0.33;
#X msg 309 160 53;
#X msg 343 160 43;
#X msg 130 163 0;
#X connect 0 0 3 0;
#X connect 2 0 4 0;
#X connect 3 0 2 0;
#X connect 3 0 5 0;
#X connect 3 0 14 0;
#X connect 3 0 9 0;
#X connect 3 0 7 0;
#X connect 3 0 8 0;
#X connect 3 0 6 0;
#X connect 3 0 12 0;
#X connect 3 0 13 0;
#X connect 3 0 11 0;
#X connect 4 0 10 0;
#X connect 5 0 10 1;
#X connect 6 0 10 6;
#X connect 7 0 10 4;
#X connect 8 0 10 5;
#X connect 9 0 10 3;
#X connect 10 0 1 0;
#X connect 11 0 10 9;
#X connect 12 0 10 7;
#X connect 13 0 10 8;
#X connect 14 0 10 2;
#X restore 239 118 pd seven;
#N canvas 507 81 450 300 eight 0;
#X obj 197 34 inlet;
#X obj 201 240 outlet;
#X obj 109 121 delay 1;
#X obj 196 64 t b;
#X obj 157 201 pack f f f f f f f f f f;
#X msg 96 163 40;
#X msg 62 164 0.51;
#X msg 164 162 9011;
#X msg 309 160 6748;
#X msg 199 160 900;
#X msg 233 160 900;
#X msg 269 160 18244;
#X msg 379 160 1;
#X msg 343 160 1;
#X msg 130 163 0.13;
#X connect 0 0 3 0;
#X connect 2 0 6 0;
#X connect 3 0 2 0;
#X connect 3 0 5 0;
#X connect 3 0 14 0;
#X connect 3 0 7 0;
#X connect 3 0 9 0;
#X connect 3 0 10 0;
#X connect 3 0 11 0;
#X connect 3 0 8 0;
#X connect 3 0 13 0;
#X connect 3 0 12 0;
#X connect 4 0 1 0;
#X connect 5 0 4 1;
#X connect 6 0 4 0;
#X connect 7 0 4 3;
#X connect 8 0 4 7;
#X connect 9 0 4 4;
#X connect 10 0 4 5;
#X connect 11 0 4 6;
#X connect 12 0 4 9;
#X connect 13 0 4 8;
#X connect 14 0 4 2;
#X restore 299 118 pd eight;
#N canvas 507 81 450 300 nine 0;
#X obj 197 34 inlet;
#X obj 201 240 outlet;
#X obj 109 121 delay 1;
#X obj 196 64 t b;
#X msg 62 164 0;
#X msg 96 163 0;
#X msg 269 160 0.33;
#X msg 199 160 53;
#X msg 233 160 43;
#X msg 130 163 -0.22;
#X msg 164 162 1;
#X obj 157 201 pack f f f f f f f f f f;
#X msg 379 160 0.33;
#X msg 309 160 53;
#X msg 343 160 43;
#X connect 0 0 3 0;
#X connect 2 0 4 0;
#X connect 3 0 2 0;
#X connect 3 0 5 0;
#X connect 3 0 9 0;
#X connect 3 0 10 0;
#X connect 3 0 7 0;
#X connect 3 0 8 0;
#X connect 3 0 6 0;
#X connect 3 0 13 0;
#X connect 3 0 14 0;
#X connect 3 0 12 0;
#X connect 4 0 11 0;
#X connect 5 0 11 1;
#X connect 6 0 11 6;
#X connect 7 0 11 4;
#X connect 8 0 11 5;
#X connect 9 0 11 2;
#X connect 10 0 11 3;
#X connect 11 0 1 0;
#X connect 12 0 11 9;
#X connect 13 0 11 7;
#X connect 14 0 11 8;
#X restore 199 138 pd nine;
#N canvas 507 81 450 300 ten 0;
#X obj 197 34 inlet;
#X obj 201 240 outlet;
#X obj 109 121 delay 1;
#X obj 196 64 t b;
#X msg 62 164 0;
#X msg 96 163 0;
#X msg 269 160 0.33;
#X msg 199 160 53;
#X msg 233 160 43;
#X msg 164 162 1;
#X obj 157 201 pack f f f f f f f f f f;
#X msg 379 160 0.33;
#X msg 309 160 53;
#X msg 343 160 43;
#X msg 130 163 0;
#X connect 0 0 3 0;
#X connect 2 0 4 0;
#X connect 3 0 2 0;
#X connect 3 0 5 0;
#X connect 3 0 14 0;
#X connect 3 0 9 0;
#X connect 3 0 7 0;
#X connect 3 0 8 0;
#X connect 3 0 6 0;
#X connect 3 0 12 0;
#X connect 3 0 13 0;
#X connect 3 0 11 0;
#X connect 4 0 10 0;
#X connect 5 0 10 1;
#X connect 6 0 10 6;
#X connect 7 0 10 4;
#X connect 8 0 10 5;
#X connect 9 0 10 3;
#X connect 10 0 1 0;
#X connect 11 0 10 9;
#X connect 12 0 10 7;
#X connect 13 0 10 8;
#X connect 14 0 10 2;
#X restore 259 138 pd ten;
#N canvas 507 81 450 300 eleven 0;
#X obj 197 34 inlet;
#X obj 201 240 outlet;
#X obj 109 121 delay 1;
#X obj 196 64 t b;
#X msg 62 164 0;
#X msg 96 163 0;
#X msg 269 160 0.33;
#X msg 199 160 53;
#X msg 233 160 43;
#X msg 164 162 1;
#X obj 157 201 pack f f f f f f f f f f;
#X msg 379 160 0.33;
#X msg 309 160 53;
#X msg 343 160 43;
#X msg 130 163 0;
#X connect 0 0 3 0;
#X connect 2 0 4 0;
#X connect 3 0 2 0;
#X connect 3 0 5 0;
#X connect 3 0 14 0;
#X connect 3 0 9 0;
#X connect 3 0 7 0;
#X connect 3 0 8 0;
#X connect 3 0 6 0;
#X connect 3 0 12 0;
#X connect 3 0 13 0;
#X connect 3 0 11 0;
#X connect 4 0 10 0;
#X connect 5 0 10 1;
#X connect 6 0 10 6;
#X connect 7 0 10 4;
#X connect 8 0 10 5;
#X connect 9 0 10 3;
#X connect 10 0 1 0;
#X connect 11 0 10 9;
#X connect 12 0 10 7;
#X connect 13 0 10 8;
#X connect 14 0 10 2;
#X restore 319 138 pd eleven;
#N canvas 507 81 450 300 twelve 0;
#X obj 197 34 inlet;
#X obj 201 240 outlet;
#X obj 109 121 delay 1;
#X obj 196 64 t b;
#X msg 62 164 0;
#X msg 96 163 0;
#X msg 269 160 0.33;
#X msg 199 160 53;
#X msg 233 160 43;
#X msg 130 163 -0.22;
#X msg 164 162 1;
#X obj 157 201 pack f f f f f f f f f f;
#X msg 379 160 0.33;
#X msg 309 160 53;
#X msg 343 160 43;
#X connect 0 0 3 0;
#X connect 2 0 4 0;
#X connect 3 0 2 0;
#X connect 3 0 5 0;
#X connect 3 0 9 0;
#X connect 3 0 10 0;
#X connect 3 0 7 0;
#X connect 3 0 8 0;
#X connect 3 0 6 0;
#X connect 3 0 13 0;
#X connect 3 0 14 0;
#X connect 3 0 12 0;
#X connect 4 0 11 0;
#X connect 5 0 11 1;
#X connect 6 0 11 6;
#X connect 7 0 11 4;
#X connect 8 0 11 5;
#X connect 9 0 11 2;
#X connect 10 0 11 3;
#X connect 11 0 1 0;
#X connect 12 0 11 9;
#X connect 13 0 11 7;
#X connect 14 0 11 8;
#X restore 379 138 pd twelve;
#N canvas 507 81 450 300 thirteen 0;
#X obj 197 34 inlet;
#X obj 201 240 outlet;
#X obj 109 121 delay 1;
#X obj 196 64 t b;
#X msg 62 164 0;
#X msg 96 163 0;
#X msg 269 160 0.33;
#X msg 199 160 53;
#X msg 233 160 43;
#X msg 164 162 1;
#X obj 157 201 pack f f f f f f f f f f;
#X msg 379 160 0.33;
#X msg 309 160 53;
#X msg 343 160 43;
#X msg 130 163 0;
#X connect 0 0 3 0;
#X connect 2 0 4 0;
#X connect 3 0 2 0;
#X connect 3 0 5 0;
#X connect 3 0 14 0;
#X connect 3 0 9 0;
#X connect 3 0 7 0;
#X connect 3 0 8 0;
#X connect 3 0 6 0;
#X connect 3 0 12 0;
#X connect 3 0 13 0;
#X connect 3 0 11 0;
#X connect 4 0 10 0;
#X connect 5 0 10 1;
#X connect 6 0 10 6;
#X connect 7 0 10 4;
#X connect 8 0 10 5;
#X connect 9 0 10 3;
#X connect 10 0 1 0;
#X connect 11 0 10 9;
#X connect 12 0 10 7;
#X connect 13 0 10 8;
#X connect 14 0 10 2;
#X restore 239 158 pd thirteen;
#N canvas 507 81 450 300 fourteen 0;
#X obj 197 34 inlet;
#X obj 201 240 outlet;
#X obj 109 121 delay 1;
#X obj 196 64 t b;
#X msg 62 164 0;
#X msg 96 163 0;
#X msg 269 160 0.33;
#X msg 199 160 53;
#X msg 233 160 43;
#X msg 130 163 -0.22;
#X msg 164 162 1;
#X obj 157 201 pack f f f f f f f f f f;
#X msg 379 160 0.33;
#X msg 309 160 53;
#X msg 343 160 43;
#X connect 0 0 3 0;
#X connect 2 0 4 0;
#X connect 3 0 2 0;
#X connect 3 0 5 0;
#X connect 3 0 9 0;
#X connect 3 0 10 0;
#X connect 3 0 7 0;
#X connect 3 0 8 0;
#X connect 3 0 6 0;
#X connect 3 0 13 0;
#X connect 3 0 14 0;
#X connect 3 0 12 0;
#X connect 4 0 11 0;
#X connect 5 0 11 1;
#X connect 6 0 11 6;
#X connect 7 0 11 4;
#X connect 8 0 11 5;
#X connect 9 0 11 2;
#X connect 10 0 11 3;
#X connect 11 0 1 0;
#X connect 12 0 11 9;
#X connect 13 0 11 7;
#X connect 14 0 11 8;
#X restore 319 158 pd fourteen;
#N canvas 507 81 450 300 fifteen 0;
#X obj 197 34 inlet;
#X obj 201 240 outlet;
#X obj 109 121 delay 1;
#X obj 196 64 t b;
#X msg 62 164 0;
#X msg 96 163 0;
#X msg 269 160 0.33;
#X msg 199 160 53;
#X msg 233 160 43;
#X msg 164 162 1;
#X obj 157 201 pack f f f f f f f f f f;
#X msg 379 160 0.33;
#X msg 309 160 53;
#X msg 343 160 43;
#X msg 130 163 0;
#X connect 0 0 3 0;
#X connect 2 0 4 0;
#X connect 3 0 2 0;
#X connect 3 0 5 0;
#X connect 3 0 14 0;
#X connect 3 0 9 0;
#X connect 3 0 7 0;
#X connect 3 0 8 0;
#X connect 3 0 6 0;
#X connect 3 0 12 0;
#X connect 3 0 13 0;
#X connect 3 0 11 0;
#X connect 4 0 10 0;
#X connect 5 0 10 1;
#X connect 6 0 10 6;
#X connect 7 0 10 4;
#X connect 8 0 10 5;
#X connect 9 0 10 3;
#X connect 10 0 1 0;
#X connect 11 0 10 9;
#X connect 12 0 10 7;
#X connect 13 0 10 8;
#X connect 14 0 10 2;
#X restore 399 158 pd fifteen;
#N canvas 507 81 450 300 sixteen 0;
#X obj 197 34 inlet;
#X obj 201 240 outlet;
#X obj 109 121 delay 1;
#X obj 196 64 t b;
#X msg 62 164 0;
#X msg 96 163 0;
#X msg 269 160 0.33;
#X msg 199 160 53;
#X msg 233 160 43;
#X msg 130 163 -0.22;
#X msg 164 162 1;
#X obj 157 201 pack f f f f f f f f f f;
#X msg 379 160 0.33;
#X msg 309 160 53;
#X msg 343 160 43;
#X connect 0 0 3 0;
#X connect 2 0 4 0;
#X connect 3 0 2 0;
#X connect 3 0 5 0;
#X connect 3 0 9 0;
#X connect 3 0 10 0;
#X connect 3 0 7 0;
#X connect 3 0 8 0;
#X connect 3 0 6 0;
#X connect 3 0 13 0;
#X connect 3 0 14 0;
#X connect 3 0 12 0;
#X connect 4 0 11 0;
#X connect 5 0 11 1;
#X connect 6 0 11 6;
#X connect 7 0 11 4;
#X connect 8 0 11 5;
#X connect 9 0 11 2;
#X connect 10 0 11 3;
#X connect 11 0 1 0;
#X connect 12 0 11 9;
#X connect 13 0 11 7;
#X connect 14 0 11 8;
#X restore 469 158 pd sixteen;
#X connect 7 0 8 0;
#X connect 8 0 9 0;
#X connect 8 1 46 0;
#X connect 8 2 47 0;
#X connect 8 3 48 0;
#X connect 8 4 49 0;
#X connect 8 5 50 0;
#X connect 8 6 51 0;
#X connect 8 7 52 0;
#X connect 8 8 53 0;
#X connect 8 9 54 0;
#X connect 8 10 55 0;
#X connect 8 11 56 0;
#X connect 8 12 57 0;
#X connect 8 13 58 0;
#X connect 8 14 59 0;
#X connect 8 15 60 0;
#X connect 9 0 33 0;
#X connect 10 0 13 0;
#X connect 11 0 0 0;
#X connect 12 0 11 0;
#X connect 14 0 12 1;
#X connect 15 0 1 0;
#X connect 16 0 15 0;
#X connect 17 0 16 1;
#X connect 18 0 2 0;
#X connect 19 0 18 0;
#X connect 20 0 19 1;
#X connect 21 0 3 0;
#X connect 22 0 21 0;
#X connect 23 0 22 1;
#X connect 24 0 4 0;
#X connect 25 0 24 0;
#X connect 26 0 25 1;
#X connect 27 0 5 0;
#X connect 28 0 27 0;
#X connect 29 0 28 1;
#X connect 30 0 6 0;
#X connect 31 0 30 0;
#X connect 32 0 31 1;
#X connect 33 0 12 0;
#X connect 33 1 16 0;
#X connect 33 2 19 0;
#X connect 33 3 22 0;
#X connect 33 4 25 0;
#X connect 33 5 28 0;
#X connect 33 6 31 0;
#X connect 33 7 38 0;
#X connect 33 8 41 0;
#X connect 33 9 44 0;
#X connect 37 0 34 0;
#X connect 38 0 37 0;
#X connect 39 0 38 1;
#X connect 40 0 35 0;
#X connect 41 0 40 0;
#X connect 42 0 41 1;
#X connect 43 0 36 0;
#X connect 44 0 43 0;
#X connect 45 0 44 1;
#X connect 46 0 33 0;
#X connect 47 0 33 0;
#X connect 48 0 33 0;
#X connect 49 0 33 0;
#X connect 50 0 33 0;
#X connect 51 0 33 0;
#X connect 52 0 33 0;
#X connect 53 0 33 0;
#X connect 54 0 33 0;
#X connect 55 0 33 0;
#X connect 56 0 33 0;
#X connect 57 0 33 0;
#X connect 58 0 33 0;
#X connect 59 0 33 0;
#X connect 60 0 33 0;
#X restore 765 151 pd noiseyPresetHolder;
#X connect 1 0 0 1;
#X connect 1 0 0 0;
#X connect 2 0 0 0;
#X connect 2 0 0 1;
#X connect 3 0 0 0;
#X connect 3 0 0 1;
#X connect 4 0 6 0;
#X connect 5 0 4 0;
#X connect 6 0 11 0;
#X connect 6 0 12 0;
#X connect 6 0 13 0;
#X connect 7 0 3 2;
#X connect 8 0 3 2;
#X connect 9 0 3 2;
#X connect 10 0 3 2;
#X connect 11 0 2 0;
#X connect 11 1 2 1;
#X connect 11 2 2 2;
#X connect 11 3 2 3;
#X connect 11 4 2 4;
#X connect 11 5 2 5;
#X connect 11 6 2 6;
#X connect 11 7 2 7;
#X connect 12 0 1 0;
#X connect 12 1 1 1;
#X connect 12 2 1 2;
#X connect 12 3 1 3;
#X connect 12 4 1 4;
#X connect 12 5 1 5;
#X connect 12 6 1 6;
#X connect 12 7 1 7;
#X connect 12 8 1 8;
#X connect 12 9 1 9;
#X connect 13 0 3 0;
#X connect 13 1 3 1;
#X connect 13 2 14 0;
#X connect 13 3 15 0;
#X connect 13 4 16 0;
#X connect 13 5 17 0;
#X connect 13 6 3 3;
#X connect 13 7 3 4;
#X connect 13 8 3 5;
#X connect 13 9 3 6;
#X connect 13 10 3 7;
#X connect 13 11 3 8;
#X connect 13 12 3 9;
#X connect 13 13 3 10;
#X connect 13 14 3 11;
#X connect 14 0 7 0;
#X connect 15 0 8 0;
#X connect 16 0 9 0;
#X connect 17 0 10 0;
#X connect 18 0 5 0;
#X connect 19 0 20 0;
#X connect 20 0 21 0;
#X connect 20 1 21 0;
#X connect 21 0 22 0;
#X connect 21 0 28 0;
#X connect 21 0 39 0;
#X connect 21 1 24 0;
#X connect 21 1 28 1;
#X connect 21 1 31 0;
#X connect 21 1 39 1;
#X connect 21 2 23 0;
#X connect 21 2 28 2;
#X connect 21 2 31 0;
#X connect 21 2 39 2;
#X connect 21 3 25 0;
#X connect 25 1 82 0;
#X connect 27 0 26 0;
#X connect 28 0 29 0;
#X connect 28 0 30 0;
#X connect 29 0 36 0;
#X connect 30 0 32 0;
#X connect 31 0 28 0;
#X connect 31 0 39 0;
#X connect 32 0 33 0;
#X connect 33 0 26 0;
#X connect 34 0 33 1;
#X connect 35 0 26 0;
#X connect 36 0 30 1;
#X connect 37 0 26 0;
#X connect 38 0 26 0;
#X connect 39 0 40 0;
#X connect 39 0 42 0;
#X connect 40 0 41 0;
#X connect 41 0 42 1;
#X connect 42 0 43 0;
#X connect 43 0 44 0;
#X connect 44 0 26 0;
#X connect 45 0 44 1;
#X connect 46 0 26 0;
#X connect 47 0 2 0;
#X connect 47 1 2 1;
#X connect 47 2 2 2;
#X connect 47 3 2 3;
#X connect 47 4 2 4;
#X connect 47 5 2 5;
#X connect 47 6 2 7;
#X connect 48 0 47 0;
#X connect 49 0 47 0;
#X connect 50 0 47 0;
#X connect 51 0 47 0;
#X connect 52 0 47 0;
#X connect 53 0 47 0;
#X connect 54 0 47 0;
#X connect 55 0 47 0;
#X connect 56 0 47 0;
#X connect 57 0 47 0;
#X connect 58 0 47 0;
#X connect 59 0 47 0;
#X connect 60 0 47 0;
#X connect 61 0 47 0;
#X connect 62 0 47 0;
#X connect 63 0 47 0;
#X connect 64 0 1 0;
#X connect 64 1 1 1;
#X connect 64 2 1 2;
#X connect 64 3 1 3;
#X connect 64 4 1 4;
#X connect 64 5 1 5;
#X connect 64 6 1 6;
#X connect 64 7 1 7;
#X connect 64 8 1 8;
#X connect 64 9 1 9;
#X connect 65 0 64 0;
#X connect 66 0 64 0;
#X connect 67 0 64 0;
#X connect 68 0 64 0;
#X connect 69 0 64 0;
#X connect 70 0 64 0;
#X connect 71 0 64 0;
#X connect 72 0 64 0;
#X connect 73 0 64 0;
#X connect 74 0 64 0;
#X connect 75 0 64 0;
#X connect 76 0 64 0;
#X connect 77 0 64 0;
#X connect 78 0 64 0;
#X connect 79 0 64 0;
#X connect 80 0 64 0;
#X connect 81 0 47 1;
#X connect 83 0 2 6;
#X connect 84 0 64 1;
