#N canvas 122 136 809 657 10;
#X obj 576 140 phasor~;
#X obj 1014 190 snapshot~;
#X obj 1020 144 metro 1;
#X obj 1023 117 tgl 15 0 empty empty empty 17 7 0 10 -262144 -1 -1
1 1;
#N canvas 0 22 450 278 (subpatch) 0;
#X array pulseWave 100 float 1;
#A 0 0.130637 0.200503 -1.17914 -1.17914 -0.225009 -0.0333487 -0.0333487
-0.038491 -0.0354867 -0.0354867 1.14113 1.00479 0.871867 0.871867 0.744548
0.624635 0.624635 0.513816 0.480846 0.480846 0.428848 1.74441 1.78807
1.78807 1.81386 1.82119 1.82119 1.81007 1.78072 1.78072 1.73402 1.67101
1.67101 1.59322 1.50245 1.50245 1.10132 1.08604 1.5689 1.5689 1.60618
1.62629 1.62629 1.62878 1.61368 1.61368 1.58155 1.53307 1.53307 1.46965
1.39271 1.39271 0.178645 0.24298 0.326904 0.326904 0.426084 0.530625
0.530625 0.638391 0.747163 0.747163 0.854663 0.958251 0.958251 1.05578
1.14493 1.22359 1.22359 0.252287 0.348273 0.348273 0.336631 0.432878
0.432878 0.53392 0.63761 0.63761 0.741753 0.843828 0.843828 0.941633
1.03278 1.11513 1.11513 -1.81033 -1.76759 -1.76759 -0.187132 -0.0515961
-0.0515961 -0.0564888 -0.0523824 -0.0523824 -0.0381698 -0.0130633 -0.0130633
0.0234146 0.0714067 0.130637;
#X coords 0 1 100 -1 120 82 1 0 0;
#X restore 106 129 graph;
#X obj 1105 150 f;
#X obj 1131 151 + 1;
#X obj 1105 172 mod 100;
#X obj 620 195 snapshot~;
#X obj 651 137 tgl 15 0 empty empty empty 17 7 0 10 -262144 -1 -1 1
1;
#X obj 619 174 metro 16.6;
#X obj 619 272 hip~ 100;
#X obj 489 251 clip~ -1 1;
#X obj 619 291 lop~ 4000;
#X obj 602 234 osc~ 10;
#X obj 791 145 phasor~;
#X obj 790 215 lop~ 900;
#X obj 863 214 osc~;
#X obj 591 355 *~;
#X obj 710 481 *~;
#X obj 651 484 *~;
#X obj 235 129 hsl 128 15 0 1 0 0 empty empty empty -2 -8 0 10 -262144
-1 -1 6991 1;
#X msg 770 432 \$1 10;
#X obj 773 453 line;
#X msg 666 436 \$1 10;
#X obj 666 458 line;
#X msg 785 124 700;
#X msg 863 169 2300;
#X msg 656 88 2000;
#X obj 677 404 -;
#X obj 685 356 t b;
#X msg 683 378 1;
#X obj 721 408 clip~ -1 1;
#X obj 269 264 hsl 64 15 0 4 0 0 empty empty empty -2 -8 0 10 -262144
-1 -1 0 1;
#X obj 752 562 delread4~ \$0-deway;
#X obj 910 488 delwrite~ \$0-deway 50;
#X obj 235 148 hsl 128 15 0 50 0 0 empty empty empty -2 -8 0 10 -262144
-1 -1 9379 1;
#X obj 269 283 hsl 64 15 1 4 0 0 empty empty empty -2 -8 0 10 -262144
-1 -1 0 1;
#X obj 724 343 expr~ (($v2+1.01)/($v1+1.01)-$v3)/$v4;
#X obj 109 246 hsl 64 15 1 1000 0 0 empty empty empty -2 -8 0 10 -262144
-1 -1 0 1;
#X obj 109 264 hsl 64 15 300 10000 0 0 empty empty empty -2 -8 0 10
-262144 -1 -1 0 1;
#X msg 916 421 1;
#X obj 923 381 loadbang;
#X obj 693 518 +~;
#X obj 680 588 *~;
#X obj 109 228 hsl 64 15 0.02 20000 0 0 empty empty empty -2 -8 0 10
-262144 -1 -1 6089 1;
#X obj 269 246 hsl 64 15 0.02 20000 0 0 empty empty empty -2 -8 0 10
-262144 -1 -1 0 1;
#X obj 269 228 hsl 64 15 0.02 20000 0 0 empty empty empty -2 -8 0 10
-262144 -1 -1 0 1;
#X obj 676 744 *~;
#X obj 235 167 hsl 128 15 0 1 0 0 empty empty empty -2 -8 0 10 -262144
-1 -1 10263 1;
#X msg 753 694 \$1 10;
#X obj 756 715 line;
#X obj 674 622 hip~ 1;
#X obj 674 644 lop~ 22050;
#X obj 819 259 max~;
#X floatatom 179 228 7 0 0 0 - - -, f 7;
#X floatatom 179 246 5 0 0 0 - - -, f 5;
#X floatatom 179 264 5 0 0 0 - - -, f 5;
#X floatatom 339 228 7 0 0 0 - - -, f 7;
#X floatatom 339 246 7 0 0 0 - - -, f 7;
#X floatatom 339 264 5 0 0 0 - - -, f 5;
#X floatatom 339 283 5 0 0 0 - - -, f 5;
#X text 264 212 Oscillator 2 Controls;
#X text 103 212 Oscillator 1 Controls;
#X msg 785 36 1;
#X obj 791 12 loadbang;
#X obj 614 767 outlet~;
#X msg 692 55 0;
#X text 366 167 Volume;
#X text 365 148 Delay;
#X text 366 129 Waveshape;
#X text 212 247 Hi-pass;
#X text 211 265 Lo-pass;
#X text 223 228 Freq;
#X text 383 228 Freq 1;
#X text 383 247 Freq 2;
#X text 372 265 Offset;
#X text 372 284 Scale;
#X obj 424 501 throw~ \$0-pulseWave;
#X obj 999 166 catch~ \$0-pulseWave;
#X obj 1014 212 tabwrite pulseWave;
#X obj 41 19 inlet;
#X obj 91 18 inlet;
#X obj 141 22 inlet;
#X obj 181 39 inlet;
#X obj 231 38 inlet;
#X obj 281 42 inlet;
#X obj 321 62 inlet;
#X obj 361 59 inlet;
#X obj 411 58 inlet;
#X obj 461 62 inlet;
#X obj 574 164 -~ 0.5;
#X obj 574 186 *~ 4;
#X obj 787 167 -~ 0.5;
#X obj 787 189 *~ 4;
#X connect 0 0 91 0;
#X connect 1 0 80 0;
#X connect 2 0 1 0;
#X connect 2 0 5 0;
#X connect 3 0 2 0;
#X connect 5 0 6 0;
#X connect 5 0 7 0;
#X connect 6 0 5 1;
#X connect 7 0 80 1;
#X connect 8 0 14 1;
#X connect 9 0 10 0;
#X connect 10 0 8 0;
#X connect 11 0 13 0;
#X connect 12 0 11 0;
#X connect 13 0 18 0;
#X connect 13 0 38 0;
#X connect 14 0 12 0;
#X connect 15 0 93 0;
#X connect 16 0 54 0;
#X connect 17 0 54 1;
#X connect 18 0 20 0;
#X connect 19 0 43 1;
#X connect 20 0 43 0;
#X connect 21 0 22 0;
#X connect 21 0 29 1;
#X connect 21 0 30 0;
#X connect 22 0 23 0;
#X connect 23 0 19 1;
#X connect 24 0 25 0;
#X connect 25 0 20 1;
#X connect 26 0 15 0;
#X connect 27 0 17 0;
#X connect 28 0 0 0;
#X connect 29 0 24 0;
#X connect 30 0 31 0;
#X connect 31 0 29 0;
#X connect 32 0 19 0;
#X connect 33 0 38 2;
#X connect 33 0 60 0;
#X connect 34 0 44 1;
#X connect 36 0 34 0;
#X connect 37 0 38 3;
#X connect 37 0 61 0;
#X connect 38 0 32 0;
#X connect 39 0 11 1;
#X connect 39 0 56 0;
#X connect 40 0 13 1;
#X connect 40 0 57 0;
#X connect 41 0 38 3;
#X connect 42 0 41 0;
#X connect 43 0 44 0;
#X connect 43 0 35 0;
#X connect 44 0 52 0;
#X connect 44 0 78 0;
#X connect 45 0 0 0;
#X connect 45 0 55 0;
#X connect 46 0 17 0;
#X connect 46 0 59 0;
#X connect 47 0 15 0;
#X connect 47 0 58 0;
#X connect 48 0 66 0;
#X connect 49 0 50 0;
#X connect 50 0 51 0;
#X connect 51 0 48 1;
#X connect 52 0 53 0;
#X connect 53 0 48 0;
#X connect 54 0 18 1;
#X connect 54 0 38 1;
#X connect 64 0 9 0;
#X connect 64 0 3 0;
#X connect 65 0 64 0;
#X connect 65 0 67 0;
#X connect 67 0 49 0;
#X connect 79 0 1 0;
#X connect 81 0 21 0;
#X connect 82 0 36 0;
#X connect 83 0 49 0;
#X connect 84 0 45 0;
#X connect 85 0 39 0;
#X connect 86 0 40 0;
#X connect 87 0 47 0;
#X connect 88 0 46 0;
#X connect 89 0 33 0;
#X connect 90 0 37 0;
#X connect 91 0 92 0;
#X connect 92 0 8 0;
#X connect 93 0 94 0;
#X connect 94 0 16 0;
#X coords 0 -1 1 1 325 205 1 100 100;
